<mxfile host="app.diagrams.net" modified="2024-06-10T22:28:06.526Z" agent="Mozilla/5.0 (Windows NT 10.0; Win64; x64) AppleWebKit/537.36 (KHTML, like Gecko) Chrome/125.0.0.0 Safari/537.36" etag="2JN_s_nFhgdMLKf1E_8i" version="24.4.13" type="device">
  <diagram name="Page-1" id="IsB8CRQCbF-ukOfMDlKp">
    <mxGraphModel dx="2788" dy="1398" grid="1" gridSize="10" guides="1" tooltips="1" connect="1" arrows="1" fold="1" page="0" pageScale="1" pageWidth="827" pageHeight="1169" math="0" shadow="0">
      <root>
        <mxCell id="0" />
        <mxCell id="1" parent="0" />
        <mxCell id="KpQ0RRauX91zfOvzku4H-84" value="" style="whiteSpace=wrap;html=1;fillColor=default;" parent="1" vertex="1">
          <mxGeometry x="-270" y="-250" width="1360" height="590" as="geometry" />
        </mxCell>
        <mxCell id="KpQ0RRauX91zfOvzku4H-81" value="&lt;b&gt;Backend&lt;/b&gt;" style="dashed=1;verticalAlign=top;fontStyle=0;whiteSpace=wrap;html=1;align=left;movable=1;resizable=1;rotatable=1;deletable=1;editable=1;locked=0;connectable=1;fillColor=#f5f5f5;strokeColor=#666666;fontColor=#333333;" parent="1" vertex="1">
          <mxGeometry x="660" y="-59" width="370" height="349" as="geometry" />
        </mxCell>
        <mxCell id="KpQ0RRauX91zfOvzku4H-17" value="&lt;b&gt;Frontend&lt;/b&gt;&lt;div&gt;&lt;b&gt;eu-central-1&lt;/b&gt;&lt;/div&gt;" style="fillColor=#f5f5f5;strokeColor=#666666;dashed=1;verticalAlign=top;fontStyle=0;whiteSpace=wrap;html=1;align=left;movable=1;resizable=1;rotatable=1;deletable=1;editable=1;locked=0;connectable=1;fontColor=#333333;" parent="1" vertex="1">
          <mxGeometry x="27" y="-59" width="583" height="349" as="geometry" />
        </mxCell>
        <mxCell id="QVzOYhmbKknuaa-5U_cw-16" value="AWS Cloudfront" style="sketch=0;points=[[0,0,0],[0.25,0,0],[0.5,0,0],[0.75,0,0],[1,0,0],[0,1,0],[0.25,1,0],[0.5,1,0],[0.75,1,0],[1,1,0],[0,0.25,0],[0,0.5,0],[0,0.75,0],[1,0.25,0],[1,0.5,0],[1,0.75,0]];outlineConnect=0;fontColor=#232F3E;fillColor=#8C4FFF;strokeColor=#ffffff;dashed=0;verticalLabelPosition=bottom;verticalAlign=top;align=center;html=1;fontSize=12;fontStyle=0;aspect=fixed;shape=mxgraph.aws4.resourceIcon;resIcon=mxgraph.aws4.cloudfront;fontFamily=Helvetica;" parent="1" vertex="1">
          <mxGeometry x="309" y="153.13" width="80" height="80" as="geometry" />
        </mxCell>
        <mxCell id="KpQ0RRauX91zfOvzku4H-30" style="edgeStyle=orthogonalEdgeStyle;rounded=0;orthogonalLoop=1;jettySize=auto;html=1;entryX=0.081;entryY=0.519;entryDx=0;entryDy=0;entryPerimeter=0;" parent="1" target="QVzOYhmbKknuaa-5U_cw-16" edge="1">
          <mxGeometry relative="1" as="geometry">
            <mxPoint x="-30" y="194.79999999999987" as="sourcePoint" />
            <mxPoint x="159" y="194.74692307692308" as="targetPoint" />
          </mxGeometry>
        </mxCell>
        <mxCell id="KpQ0RRauX91zfOvzku4H-46" value="Getting cached website&lt;br&gt;&amp;nbsp;content from CDN" style="edgeLabel;html=1;align=center;verticalAlign=bottom;resizable=0;points=[];horizontal=1;labelBackgroundColor=none;" parent="KpQ0RRauX91zfOvzku4H-30" vertex="1" connectable="0">
          <mxGeometry x="-0.2945" y="-1" relative="1" as="geometry">
            <mxPoint x="24" y="-2" as="offset" />
          </mxGeometry>
        </mxCell>
        <mxCell id="KpQ0RRauX91zfOvzku4H-42" style="edgeStyle=orthogonalEdgeStyle;rounded=0;orthogonalLoop=1;jettySize=auto;html=1;" parent="1" source="KpQ0RRauX91zfOvzku4H-4" target="KpQ0RRauX91zfOvzku4H-40" edge="1">
          <mxGeometry relative="1" as="geometry">
            <Array as="points">
              <mxPoint x="78.73" y="-177" />
              <mxPoint x="78.73" y="-177" />
            </Array>
          </mxGeometry>
        </mxCell>
        <mxCell id="KpQ0RRauX91zfOvzku4H-4" value="Github repo" style="dashed=0;outlineConnect=0;html=1;align=center;labelPosition=center;verticalLabelPosition=top;verticalAlign=bottom;shape=mxgraph.weblogos.github;whiteSpace=wrap;" parent="1" vertex="1">
          <mxGeometry x="-60" y="-215" width="75" height="75" as="geometry" />
        </mxCell>
        <object label="End User" id="KpQ0RRauX91zfOvzku4H-22">
          <mxCell style="points=[[0.35,0,0],[0.98,0.51,0],[1,0.71,0],[0.67,1,0],[0,0.795,0],[0,0.65,0]];verticalLabelPosition=bottom;sketch=0;html=1;verticalAlign=top;aspect=fixed;align=center;pointerEvents=1;shape=mxgraph.cisco19.user;fillColor=#005073;strokeColor=none;fontStyle=0" parent="1" vertex="1">
            <mxGeometry x="-253" y="153.88" width="81.25" height="81.25" as="geometry" />
          </mxCell>
        </object>
        <mxCell id="KpQ0RRauX91zfOvzku4H-24" value="S3 bucket with&amp;nbsp;static &lt;br&gt;content" style="sketch=0;points=[[0,0,0],[0.25,0,0],[0.5,0,0],[0.75,0,0],[1,0,0],[0,1,0],[0.25,1,0],[0.5,1,0],[0.75,1,0],[1,1,0],[0,0.25,0],[0,0.5,0],[0,0.75,0],[1,0.25,0],[1,0.5,0],[1,0.75,0]];outlineConnect=0;fontColor=#232F3E;fillColor=#7AA116;strokeColor=#ffffff;dashed=0;verticalLabelPosition=bottom;verticalAlign=top;align=center;html=1;fontSize=12;fontStyle=0;aspect=fixed;shape=mxgraph.aws4.resourceIcon;resIcon=mxgraph.aws4.s3;whiteSpace=wrap;" parent="1" vertex="1">
          <mxGeometry x="466" y="154.13" width="78" height="78" as="geometry" />
        </mxCell>
        <mxCell id="KpQ0RRauX91zfOvzku4H-27" value="Dynamo DB" style="sketch=0;points=[[0,0,0],[0.25,0,0],[0.5,0,0],[0.75,0,0],[1,0,0],[0,1,0],[0.25,1,0],[0.5,1,0],[0.75,1,0],[1,1,0],[0,0.25,0],[0,0.5,0],[0,0.75,0],[1,0.25,0],[1,0.5,0],[1,0.75,0]];outlineConnect=0;fontColor=#232F3E;fillColor=#C925D1;strokeColor=#ffffff;dashed=0;verticalLabelPosition=bottom;verticalAlign=top;align=center;html=1;fontSize=12;fontStyle=0;aspect=fixed;shape=mxgraph.aws4.resourceIcon;resIcon=mxgraph.aws4.dynamodb;" parent="1" vertex="1">
          <mxGeometry x="898" y="155.13" width="78" height="78" as="geometry" />
        </mxCell>
        <mxCell id="KpQ0RRauX91zfOvzku4H-70" value="" style="edgeStyle=orthogonalEdgeStyle;rounded=0;orthogonalLoop=1;jettySize=auto;html=1;" parent="1" edge="1">
          <mxGeometry relative="1" as="geometry">
            <mxPoint x="796" y="182.5" as="sourcePoint" />
            <mxPoint x="898" y="182.5" as="targetPoint" />
            <Array as="points">
              <mxPoint x="818" y="182" />
              <mxPoint x="818" y="182" />
            </Array>
          </mxGeometry>
        </mxCell>
        <mxCell id="KpQ0RRauX91zfOvzku4H-72" value="Update visitors &lt;br&gt;count to DB" style="edgeLabel;html=1;align=center;verticalAlign=bottom;resizable=0;points=[];labelBackgroundColor=none;" parent="KpQ0RRauX91zfOvzku4H-70" vertex="1" connectable="0">
          <mxGeometry x="-0.0493" relative="1" as="geometry">
            <mxPoint as="offset" />
          </mxGeometry>
        </mxCell>
        <mxCell id="KpQ0RRauX91zfOvzku4H-26" value="Lambda" style="sketch=0;points=[[0,0,0],[0.25,0,0],[0.5,0,0],[0.75,0,0],[1,0,0],[0,1,0],[0.25,1,0],[0.5,1,0],[0.75,1,0],[1,1,0],[0,0.25,0],[0,0.5,0],[0,0.75,0],[1,0.25,0],[1,0.5,0],[1,0.75,0]];outlineConnect=0;fontColor=#232F3E;fillColor=#ED7100;strokeColor=#ffffff;dashed=0;verticalLabelPosition=bottom;verticalAlign=top;align=center;html=1;fontSize=12;fontStyle=0;aspect=fixed;shape=mxgraph.aws4.resourceIcon;resIcon=mxgraph.aws4.lambda;fontFamily=Helvetica;" parent="1" vertex="1">
          <mxGeometry x="718" y="153.88" width="78" height="78" as="geometry" />
        </mxCell>
        <mxCell id="KpQ0RRauX91zfOvzku4H-31" style="edgeStyle=orthogonalEdgeStyle;rounded=0;orthogonalLoop=1;jettySize=auto;html=1;entryX=0;entryY=0.5;entryDx=0;entryDy=0;entryPerimeter=0;" parent="1" source="QVzOYhmbKknuaa-5U_cw-16" target="KpQ0RRauX91zfOvzku4H-24" edge="1">
          <mxGeometry relative="1" as="geometry" />
        </mxCell>
        <mxCell id="KpQ0RRauX91zfOvzku4H-23" value="AWS Certificate Manger" style="sketch=0;points=[[0,0,0],[0.25,0,0],[0.5,0,0],[0.75,0,0],[1,0,0],[0,1,0],[0.25,1,0],[0.5,1,0],[0.75,1,0],[1,1,0],[0,0.25,0],[0,0.5,0],[0,0.75,0],[1,0.25,0],[1,0.5,0],[1,0.75,0]];outlineConnect=0;fontColor=#232F3E;fillColor=#DD344C;strokeColor=#ffffff;dashed=0;verticalLabelPosition=top;verticalAlign=bottom;align=center;html=1;fontSize=12;fontStyle=0;aspect=fixed;shape=mxgraph.aws4.resourceIcon;resIcon=mxgraph.aws4.certificate_manager_3;horizontal=1;labelPosition=center;whiteSpace=wrap;" parent="1" vertex="1">
          <mxGeometry x="103" y="1" width="78" height="78" as="geometry" />
        </mxCell>
        <mxCell id="KpQ0RRauX91zfOvzku4H-58" style="edgeStyle=orthogonalEdgeStyle;rounded=0;orthogonalLoop=1;jettySize=auto;html=1;" parent="1" source="KpQ0RRauX91zfOvzku4H-38" target="KpQ0RRauX91zfOvzku4H-4" edge="1">
          <mxGeometry relative="1" as="geometry">
            <Array as="points">
              <mxPoint x="-110" y="-175" />
            </Array>
          </mxGeometry>
        </mxCell>
        <mxCell id="KpQ0RRauX91zfOvzku4H-59" value="Pushing changes&lt;br style=&quot;border-color: var(--border-color);&quot;&gt;to the codes" style="edgeLabel;html=1;align=center;verticalAlign=middle;resizable=0;points=[];" parent="KpQ0RRauX91zfOvzku4H-58" vertex="1" connectable="0">
          <mxGeometry x="-0.2818" y="-1" relative="1" as="geometry">
            <mxPoint as="offset" />
          </mxGeometry>
        </mxCell>
        <mxCell id="KpQ0RRauX91zfOvzku4H-38" value="Developer" style="verticalLabelPosition=bottom;html=1;verticalAlign=top;align=center;strokeColor=none;fillColor=#00BEF2;shape=mxgraph.azure.user;" parent="1" vertex="1">
          <mxGeometry x="-129.12" y="-30" width="47.5" height="50" as="geometry" />
        </mxCell>
        <mxCell id="KpQ0RRauX91zfOvzku4H-45" style="edgeStyle=orthogonalEdgeStyle;rounded=0;orthogonalLoop=1;jettySize=auto;html=1;" parent="1" source="KpQ0RRauX91zfOvzku4H-40" target="KpQ0RRauX91zfOvzku4H-24" edge="1">
          <mxGeometry relative="1" as="geometry">
            <Array as="points">
              <mxPoint x="220" y="-123" />
              <mxPoint x="505" y="-123" />
            </Array>
          </mxGeometry>
        </mxCell>
        <mxCell id="KpQ0RRauX91zfOvzku4H-52" value="Uploading updated files from &lt;br&gt;github repo to S3 bucket" style="edgeLabel;html=1;align=center;verticalAlign=middle;resizable=0;points=[];" parent="KpQ0RRauX91zfOvzku4H-45" vertex="1" connectable="0">
          <mxGeometry x="-0.5302" y="3" relative="1" as="geometry">
            <mxPoint as="offset" />
          </mxGeometry>
        </mxCell>
        <mxCell id="KpQ0RRauX91zfOvzku4H-50" style="edgeStyle=orthogonalEdgeStyle;rounded=0;orthogonalLoop=1;jettySize=auto;html=1;" parent="1" source="KpQ0RRauX91zfOvzku4H-40" target="QVzOYhmbKknuaa-5U_cw-16" edge="1">
          <mxGeometry relative="1" as="geometry">
            <Array as="points">
              <mxPoint x="203" y="-79" />
              <mxPoint x="367" y="-79" />
            </Array>
          </mxGeometry>
        </mxCell>
        <mxCell id="KpQ0RRauX91zfOvzku4H-53" value="Invalidtated cached files &lt;br&gt;stored in edge locations" style="edgeLabel;html=1;align=center;verticalAlign=middle;resizable=0;points=[];" parent="KpQ0RRauX91zfOvzku4H-50" vertex="1" connectable="0">
          <mxGeometry x="-0.6194" y="2" relative="1" as="geometry">
            <mxPoint x="1" as="offset" />
          </mxGeometry>
        </mxCell>
        <mxCell id="KpQ0RRauX91zfOvzku4H-61" value="Using Terraform code to automate &lt;br&gt;the deployement of the backend infrastructure" style="edgeStyle=orthogonalEdgeStyle;rounded=0;orthogonalLoop=1;jettySize=auto;html=1;verticalAlign=bottom;labelPosition=center;verticalLabelPosition=top;align=center;" parent="1" source="KpQ0RRauX91zfOvzku4H-40" target="KpQ0RRauX91zfOvzku4H-55" edge="1">
          <mxGeometry x="0.0008" relative="1" as="geometry">
            <mxPoint as="offset" />
          </mxGeometry>
        </mxCell>
        <mxCell id="KpQ0RRauX91zfOvzku4H-40" value="Github Actions" style="shape=image;verticalLabelPosition=top;labelBackgroundColor=default;verticalAlign=bottom;aspect=fixed;imageAspect=0;image=data:image/png,iVBORw0KGgoAAAANSUhEUgAAASAAAAEgCAMAAAAjXV6yAAAARVBMVEX////f7v/r9P+gyf8Bgv/6/f/z+f8giP95uP8bh/+v0//C3f8Shf9ToP9xsP/S5v+Gvf8Bif+TxP8/mP8skf9iqf8ZkP99OR8CAAAPv0lEQVR42uyd13azvBJAUUcNdd7/Uc+FkZAwbrG//2CZuY3jFXZGo+kMwymnnHLKKaeccsopp5xyyimnnHLKKaeccsopp5xyyimnnHLKKaeccsopp5xyyimn/GdCCKGUUgghpZRSQk4kNRwKjUR2SjqEoNNkkTTghJTpQCOmMDuMsboIxtjNYUIGnowINV7PWCnOGuFcKTxrb+BPIyJQpFnxDZya0pwE/GU8mt+ks4jiGoHf5EOFfkTnokdM/6IWETOxZ/AwxhiPk/w1UwRR4DsmRyml1N6xC/63lAiMrfpwpdQcdJpGO06TDrPa3mtxMj90vKSu+XDlZm2FAZASQgihEBhhU3QtIy1+ho+ojxfHTiMDycYnJNSgNOMaUUC/YYioCKrCM4/yhsNMqLENouDpT/CJqsJjDSV3/ewKEf8FQrX+KJckJY9CkcmtQKPv/ZRRGXB+XBzRE5EWgSLiVYd6t0NS54flTsvnDgw1qRwzHvq+y8yU+Sg1gWeVgQBbCCndsz8EfXZt1GzBS7/oCqGpX596vcAUs689JkSZEFf9XmUmLQeMzxa+rHyFUOw1ci3PyN3YnC9oBEJC3mcGrcu3X6+HTOQbHifTRGY2hciituLu2QFF/5zoUoXAmPlo2Rgm7bDiXGEXvLn35CaHcFh3mWPMFlpFROvINZYrHLu7GWgi5uWDDtEeFWixIW4CjVqoOrKP9o73CKeeVSjHYDg0B8ziNkeP7+XoTcgqJLpToXwJcdfc8CBu06vYjTeViPr8odTdRZaDsFaBiHSldrEqUUC3jHVWIeW684XQgqBVICLyCaszY3eMtc0f6c2dziZaNQq0Aop+mtcUNMfRGnpPhXAAvZ2wxUQ3V1gBxGdgvHYrIYW12Iv26ZSdxc7OGLoYY+7ahFcFaKByjIo/MtYiLj/uyxWi9vLorYluAQ0DQJqrxlhfK5HRXQZkYHJ7J2wDaCDShkaJ0lUEm8+YiqBLE7S5fDaAhgGKFOuiULwKz3zs0QgtbrTaxuFXgIbB+LrpQ2G9cZplWNh15UwvNlpFOTwCNFAxNcY6tuY4x/RdWWniL24i3mbc9wANA/B17R7H5uaD2Urbjqx0ucQ2NvoGoIHIMaznbJM/mjoMx+C42Gj7HKBhgKhWIlupEBm7BOT2j8VNQMNgbOkBUQlch2Nd5YRgdoP884AGKtKSC+HNGbOxv2gM/AXQWiZq682+Q0B/0qAB5D5GHnrXoL/YICpLdM8b76BLG1QAPXuLDcbOa1vQRPdusY4AveoHDbBp02tMUJd+EPHzK540kXWTOWdjjQKmBdDYU75jicW26aB9QMCHphLUFKoHoHvMmOVofhYPAVGR2vb7TQd5n9H8kg/i25rxNSAz1urDXUDwF/JBYGm9w+PdjOIAkY716ZrHbb6M9JlRhNbtWukWEJFTg2evzbOYoM5qq6WqIW5WNQbgNWsaGfxO4afTqsaalB5v1MXgGpsuCftpr+qT3cTu6mLFCO1XVnkUY2jr82K3yRzk4nxvldXsKnLX1DXW2nyNh2Nnb7Qv+NhhwrU9Y3q/u6NugMHpVkNnNtG8v+6O3KHYqhAB87Y/iOOIbvbgI9Zvi1luUdym4PFV/5S5eT/lunN3d9gwrGMabYsZkY63HXji9gQQyd1BnXmJ+XgsCR4Val+IIlfP191tBJax1/apjQo1hwx6hxVnjCvsprvd9kDnSZhouuwkz1aIt43AUE4OY4xdEncHpHJask8LNAzDAPK0BY+NF0OBRN4jCe4+NvWKdd1oP1TjhipuyhsUwgfDqxRlh6BDH2h9SJXnxa7SPI9+dZ2Vxrbf0Wcw5kv9RULVYG9X1YzrmyyV54z++QcFaC6zwNsWo85i1nUqXLHxycuaGFt8JT6LvufCq7PC3XOLk6BMeOXT/e4FiFZCN/vpa+ts/DpQ9odZ1y8k5NdFCgprcdf7oUBovO5d+AU+jQ6V3Tj7tgcakVy12+QVu/7d7tC6v4NxjIOV4MpPpBBIrys8TP3Omi4qqrkVxjF2lwVUyx5XCiEwwmqHKzyc6w9EYGSR4wcdE1NNGghjF5L1SAiBvE1hdhg3n3h/ER6FEBgppZBSGvAotPn/B65Bbda84Vo2P+TBmjfpGGFTcM5hjJ2LehQGHJrRpp/+7hpFHt9cWEqBmOYLd84ve2LxvevhIErkdXxiFSfnUb93e1Hgg8Pqujpw2Z925MjsMSLOo7ZvWR8CUMA3dFVhN5kju+bE+BTYnW3ALCT/XnqVyuTUnX8Ajv7YG5mBGHWIuztuWdCTAO/99bXffuOfgNPBM9zECJvC5u+OIaQRva3+YHrCyqkoDx8BQ1kIBa11Gr34xA1j0oZPDCGEEGKrsmo+fjtfngJTswAA0mEYPqD2Rjd4gh69kMZIiWxqjjU//i4Q+A+6EkDTDaptfaVTg1KF6Ph5OFiq7h+LSGHFh4frbrWmnfbwi9FWQJ8qehEbV/0Ydy9Dum795urgxbYC6GPmQIT1lrr1lcSkQsiN9CsAfaqsA8oXunD79BA4roQObYZWQJ9RodIpw3C45wdWhI5d0V4BXU+8/OmGD+zJTpCyGI0fenVcBWizxOs9BXpCH4H+BhWqADE1v/2vLAr0RDcsyX1Zh3YXa0B3rp1nFQjxx+3UlG7V7cjjDQ0gpsJ7OgTz7X1bJ6SdpmUhISnd6e64cX0LiKnwThKRmJi3c9/4FiI04zzmTjd7/AGQDaD3qhgEqfsPTETAnDEel50XZXXccc/YFhDjXP85l0inpRly3v8GUvYSLxq2rrUyhwfE1+goJi//lFCkS4il9hVi5VMG8tHhxxgLoFi1TSumJy+kMeA1kctc1X479cqHcb0QzPm64w7CrmuTxqq1gSvHo05pek1SWYlLcvZHluwtEeubK5hvnUWOD1v+L4AQQE2a/VLke1FYa4KMTzot1yKt+PAyel+G8afjA6JUaKzYB4QvEx1gnDHGbjQb/eHr9CM5/DqHCtBAzegw/wQguFhgxRhTbjS3+AzD4ReCwGafAmgap94ERMY8ATHK2v4007Pj0ePVFtBADEpNe9AbR4zmGQ/OtK56bBsUX6ZBwzBQI8bgckPG3wAtRtrncViOb/EpK2W+wUgXwwmksCnES0/PX24xdXH7THIbxFs+X7BSBu7udCHQSCHQq2JbP4hI3RK64rPuGPbfBWjBROhrYrInvYy9bAhd8/kmT/oTCQe6lJxVjiQaQopdv7nLfk0s9hlA5WLPz1sR2uNTTNBx9zl8FBARajtaVgjt8SHlhI3wJwCV15lU+R0itVOc4x0+65sEDrzV6rOAaHkJ0JrwIDIxp8LemwOzAh04X/ZhQIPY+IqXuxxZu9dOXNpAjrxY77OACFzuMd7GDrud4wSxL5gW/rAGlS0oj10/kvOPx9769WlA4Nl2GlLee3fscfNPAyq7zphyd996Z7T6indLfhxQvroZU+72BDqRZWcsP/ZCkI8DWncNMe7sfvWIwHVdAZ/RV3SYfQ4QWXvw+O5WIkLNVEVoB9+d+3lAA/GR1W+2h82gIaHGVi9940ff5/APAA3Qxmatp5eQXiYyKTRiqt+Jxw//DvJ/AWiAY9NOr+aQrEcI2UlHVU9IcX34jU3/BFCrQ4wx/r/2rq7LURCG8lEoggUa2/7/n7oPKiBa60x1jiy5b9PZOafeDUkMyU3TtG07r3IXsMP+GIKIhG5Dxb8EPZmDCCLC3D7NND6KGMdnhwmxU782PNxcn2XoWR1HEBEm3VA6HUVvb7wQNQd2pJS/NOpxzzlq2strTdWyJoKIkI4/X/fLpW2bZhibf00HyOomiBAiJDWgbt3rfn89btZrd3Zxij8mqL9/ZH2PHpNSFKb0xf52nUh5Omjsv9y3ggQhQUgQEoQE1ULQ8RucBaPOOWOcc736RZEWdFTtQVKjOQfvvfcegGvjWEnZkHweuXFFUKPBK6WsUlZZZZVS6qMG+jkJOuD2RVDDvepZSWCVAu1KoSgMS+zf6s4Mn7MzcgTfSlz9GYby+u4rRaTjagVWgSmjZDbM/LU7t1gw49UnlGFEpjsizjM9sxhr8/NmoYQ9JuPalV3HSSjP3bIHAPC5y/YFMBS2X+6p0cUn7Hjez786Z4aoXxRDPEzi7qbRlfLjwbiYPgtGjU4osgUwNErWXbqd7oFl6n8WBsyZSyiy/vSeOrSEXfa5qpImMZ/lQMUMRIbOf0GmxzjW7bJaxPnEfORnL2VPL6VIR8mWi9ohkLFoHOC25QGnd0Ojm95DK0vEA7auIxM9lT19E0M0oe9VH6kPj003+/LTtzEE3cfL7cvvKvT2DCdkA+c3IaauYSrgu1jPgofeII4Y3Lk9vRcytyhq+I0NRQ+0ySh0OaE+iqveuy/CruQ/ikwh4vnT9+IxH1aqt6/fy5gFF73RqwQTOr80ObXXKK76/OX3jSds4zkdXVYBZ4xEfd7rtX397r80xLCtR0bwYs4YISZhqGkfT/7zDTNy9CmbE05TTDad2dC1aZrHE7Shw+aohe8vcsjRBaVKg7OVUJMPlv7ixAxlux6aZtxm0N1mTyDoRNsDOHCAuT04DTytzgvHgcfzG+KYLuIaiMZYNmtrfnAx9ccrRfngUYZ/FUcPxw9klhfYMggiUnf3dxRN62kOVq4rwi0thSyojUfKZG7dltI2LSbDXBNMlNWFVlsIGszMjiYk3FCzD+ZYGkH90qJFii4gFl/FlwiS0yAVHl+agaAgzFAeQUQwYxe2gu1kQap4CyKECOagu18ubRrUMgUb5+0GgvqKho1rABnYvhaSZ4q8rEWcQjLDbZeKmGU7DqTxC1qlI0OhVE+5stabRB8NrLVxs1tpUWzCkaTOaA7gvffzZgzhNOdcc51g/i4vmDOTbqD+A5HnQQW8rb5jacTa73oIGd49o7sSIh8+mPw81sys+793kefvYvBfvovtYHB65oS2FdhsJcuSQxRXG9f1hBOmK2lCDhXFbS2h0eKMqIOgkNZse+LIZx3r2gkhTv3gkUOJv5oTRkSIY1tS41gxcaIWC0qu5j+mfqFiYjkj1SA2d3zaFJ10wNRjQKkXsusMRX7q8UB5pci/P2UisZ96QthgGpB24L1hMa3YGlEXQSLpwVPcLfhfSdNGV13dJJ80aRNrvly7V2KwqsYItuCGlLKeG8oGETPJqNOQdttzSkiNDPlZq71xzhjNQdm0VgtV8pMzpJTtJ1nslJ1a7af3Q6DUhnkoUi3E+jxdnyYxUjOoXjUiz50gdUM47d/TU7n5jAlzNh6G9MzfuQzPOAJezkz435gRdVpzAPAAnGtD0XgWDKkXMWMMTQeBQCAQCAQCgUAgEAgEAoFAIBAIBAKBQCAQCAQCgUAgEAgEAoFAIBAIBAKBQCAQn/EPT3hBAf2vbc8AAAAASUVORK5CYII=;clipPath=inset(9.03% 19.79% 14.24% 13.89%);labelPosition=center;align=center;" parent="1" vertex="1">
          <mxGeometry x="174.73" y="-216" width="66.5475113122172" height="77" as="geometry" />
        </mxCell>
        <mxCell id="KpQ0RRauX91zfOvzku4H-47" style="edgeStyle=orthogonalEdgeStyle;rounded=0;orthogonalLoop=1;jettySize=auto;html=1;" parent="1" source="QVzOYhmbKknuaa-5U_cw-16" target="KpQ0RRauX91zfOvzku4H-23" edge="1">
          <mxGeometry relative="1" as="geometry">
            <Array as="points">
              <mxPoint x="332" y="121" />
              <mxPoint x="142" y="121" />
            </Array>
          </mxGeometry>
        </mxCell>
        <mxCell id="KpQ0RRauX91zfOvzku4H-48" value="Storing SSL/TLS certifcation &lt;br&gt;for Https encryption" style="edgeLabel;html=1;align=center;verticalAlign=middle;resizable=0;points=[];labelBackgroundColor=#f5f5f5;textShadow=0;" parent="KpQ0RRauX91zfOvzku4H-47" vertex="1" connectable="0">
          <mxGeometry x="0.2464" y="-3" relative="1" as="geometry">
            <mxPoint x="19" y="-17" as="offset" />
          </mxGeometry>
        </mxCell>
        <mxCell id="KpQ0RRauX91zfOvzku4H-55" value="Terraform" style="shape=image;verticalLabelPosition=bottom;labelBackgroundColor=default;verticalAlign=top;aspect=fixed;imageAspect=0;image=data:image/png,iVBORw0KGgoAAAANSUhEUgAAAE4AAABOCAYAAACOqiAdAAAACXBIWXMAAAsTAAALEwEAmpwYAAADtUlEQVR4nO2bz0sUYRjHx0KKjDp0MC8lhIcIPKSXIPf9sSss1NVD2O77uMIegvJP0H/Bo6fAYxDtrCKEHcOLdAsPGkhQ7r6vIglGIunEtDutmK67787uvDPzfOCFvezw8tmZeb8z33ctC0GQKCCoevWCyOtBzyN0AFebwOWWYNv56WnnUtDzCZk45bhDcLmaSZYfBT2n0ImrDHkMXM0LIm8HPbeQiasOpvYFkzMv0+tXgp5juMTx6uXL5Lqg6knQ8wydOPgnUC1nUjv3g55v6MRBZfE4BC5nx9M7N6y404w4qC0gGF/0xCmML62IgzjHl9bFKW/1/THB1DMrLvglDirZ77UVF9olbpKXe4GpnNnPv9OXGCvkOLd7jREnSKm/egl/mkjJx5ZhEFIYptReobToEPKu3zhxUFtA3mRSu3esgBkZedtHSHGOkOKRK81wcaq6gKif7vOvIJtXrQ4zNDTXTWlhihB7zxMWGnFQG1+AqzGrQxBSSFFqr50WFkZxTnV8yLLSA6tNJBILA4QUF88TFmZxjvf8m0/t3vRL2Ojo+x5C7BlC7IOLpIVWHNS+uwNcTY2NOZf1lTldjC1kCSmWGxEWDXG8egZqxpeT8aLZEQlx0GR8OStedERcjmwPA1MrZolTF8aXevGiI+IqOF1ZJrPAVckkceAJ5Gojy8uD3rE5twcpLW60KswHcRWej5Z6/v7CTB2YJK4iT4J3bEJs8EuaL+I8IKUGgMtFFKfJRLKcAibX8IzTID/kdLv5Cpjcw0tVg/ER1Qdczgkmj/Aep0GuXnyJ++KgHV9QnGZ8QXGa8QXF6ZFjW3e9z3iP0wTFaeN0ua/HgcmvBq+qW4zZebcmtEwj//T7NXcBAa5+GSTukBB7Np1eMn/XVZbJe+47NgPELScSi+bu85s8p8kXtJwErj53Xpy9TmnB/J2lok6T7z3/uht12i2OEHvfLW7S6aVw7GUWDTT5meS3W27DBUz+9l+cfUypPa+1LyRIRBNNPnD1ELj66KO41USiGM7/a4imm/z68aVBcebGi0bRbfLPiy8XiAtPvLiIVpv80/Gljjiz40Wz+NXke/Hlf3EhiRfN4meT78YX9w30yRLa7VWtKCI61ORHDtHmJj+yiDY2+ZFGtLGsiTQCxemB4jRBcZqgOE1QnCYoThMUpwmK0wTFaYLiDGzyY0G+DU1+rMj62OTHEuFDkx9b8i02+bEno9nkI5pNPqLZ5CNn0EiTj9ShXpOPNMBZTT7SIKebfMQylz+DIVbN1UrOGQAAAABJRU5ErkJggg==;" parent="1" vertex="1">
          <mxGeometry x="838.0007050524263" y="-215.9951868318256" width="78" height="78" as="geometry" />
        </mxCell>
        <mxCell id="KpQ0RRauX91zfOvzku4H-74" value="Retreive the visitors &lt;br&gt;count from DB" style="edgeStyle=orthogonalEdgeStyle;rounded=0;orthogonalLoop=1;jettySize=auto;html=1;entryX=1;entryY=0.5;entryDx=0;entryDy=0;entryPerimeter=0;labelPosition=center;verticalLabelPosition=bottom;align=center;verticalAlign=top;labelBackgroundColor=none;" parent="1" edge="1">
          <mxGeometry relative="1" as="geometry">
            <mxPoint x="898" y="205.08333333333337" as="sourcePoint" />
            <mxPoint x="796" y="205.51" as="targetPoint" />
          </mxGeometry>
        </mxCell>
        <mxCell id="KpQ0RRauX91zfOvzku4H-83" value="AWS Cloud" style="points=[[0,0],[0.25,0],[0.5,0],[0.75,0],[1,0],[1,0.25],[1,0.5],[1,0.75],[1,1],[0.75,1],[0.5,1],[0.25,1],[0,1],[0,0.75],[0,0.5],[0,0.25]];outlineConnect=0;gradientColor=none;html=1;whiteSpace=wrap;fontSize=12;fontStyle=0;container=1;pointerEvents=0;collapsible=0;recursiveResize=0;shape=mxgraph.aws4.group;grIcon=mxgraph.aws4.group_aws_cloud_alt;strokeColor=#232F3E;fillColor=none;verticalAlign=top;align=left;spacingLeft=30;fontColor=#232F3E;dashed=0;" parent="1" vertex="1">
          <mxGeometry x="-20" y="-106" width="1080" height="420" as="geometry" />
        </mxCell>
        <mxCell id="0y5u9PAxMaBoNawSlbt3-2" value="" style="edgeStyle=orthogonalEdgeStyle;rounded=0;orthogonalLoop=1;jettySize=auto;html=1;entryX=1;entryY=0.5;entryDx=0;entryDy=0;entryPerimeter=0;labelPosition=center;verticalLabelPosition=bottom;align=center;verticalAlign=top;exitX=0;exitY=0.5;exitDx=0;exitDy=0;exitPerimeter=0;" edge="1" parent="KpQ0RRauX91zfOvzku4H-83" source="KpQ0RRauX91zfOvzku4H-26">
          <mxGeometry relative="1" as="geometry">
            <mxPoint x="684" y="298.4033333333334" as="sourcePoint" />
            <mxPoint x="582" y="298.83000000000004" as="targetPoint" />
          </mxGeometry>
        </mxCell>
        <mxCell id="0y5u9PAxMaBoNawSlbt3-16" value="" style="endArrow=classic;html=1;rounded=0;strokeColor=default;align=center;verticalAlign=middle;fontFamily=Helvetica;fontSize=11;fontColor=default;labelBackgroundColor=default;flowAnimation=0;" edge="1" parent="KpQ0RRauX91zfOvzku4H-83">
          <mxGeometry width="50" height="50" relative="1" as="geometry">
            <mxPoint x="864" y="206" as="sourcePoint" />
            <mxPoint x="953" y="261.13" as="targetPoint" />
            <Array as="points">
              <mxPoint x="953" y="206" />
            </Array>
          </mxGeometry>
        </mxCell>
        <mxCell id="0y5u9PAxMaBoNawSlbt3-4" value="" style="edgeStyle=orthogonalEdgeStyle;rounded=0;orthogonalLoop=1;jettySize=auto;html=1;entryX=0;entryY=0.5;entryDx=0;entryDy=0;entryPerimeter=0;" edge="1" parent="1" source="KpQ0RRauX91zfOvzku4H-22" target="0y5u9PAxMaBoNawSlbt3-3">
          <mxGeometry relative="1" as="geometry">
            <mxPoint x="-172" y="195" as="sourcePoint" />
            <mxPoint x="60" y="194" as="targetPoint" />
          </mxGeometry>
        </mxCell>
        <mxCell id="0y5u9PAxMaBoNawSlbt3-5" value="GoDaddy&lt;div&gt;&lt;br&gt;&lt;/div&gt;" style="edgeLabel;html=1;align=center;verticalAlign=top;resizable=0;points=[];" vertex="1" connectable="0" parent="0y5u9PAxMaBoNawSlbt3-4">
          <mxGeometry x="-0.2499" y="2" relative="1" as="geometry">
            <mxPoint x="78" y="43" as="offset" />
          </mxGeometry>
        </mxCell>
        <mxCell id="0y5u9PAxMaBoNawSlbt3-3" value="" style="shape=image;verticalLabelPosition=bottom;labelBackgroundColor=default;verticalAlign=top;aspect=fixed;imageAspect=0;image=data:image/png,iVBORw0KGgoAAAANSUhEUgAAAQAAAAEACAYAAABccqhmAAAABGdBTUEAALGPC/xhBQAAACBjSFJNAAB6JgAAgIQAAPoAAACA6AAAdTAAAOpgAAA6mAAAF3CculE8AAAAB3RJTUUH5QYGCA8IpyZPqAAAAAZiS0dEAAAAAAAA+UO7fwAAKJRJREFUeNrtXQmYHFW1bhARCOB8IklPdxITQDYlEVSIPrZngARBRJRNNLIoojGC+BT4nvKeCggugGiC+lA2iYpiEIILEIOSoAYlKGikqmY6CzOZJZk1M5NMZqbf/9dUcDKZpW53VXdV13+/7yfDTHfVveeec+49555zbiqlFqtWlcvtPsm29846TlXGticBb8ja9mEZxzmp2rY/jP+/FPgi8B0PC/H3nwOrhuA5ID8Mzw37zM/53SHP4TMvdd+Bd7nvxLvZB/aFfWLfNENqagG1tG3vBwGrBo7MWNYsCN3p+Pki4JrsoHA+AryAnztGEOiw0cF3sw9eX65h39w+oq9un9F3jkEzqabmb3XfE0JzBITobAjR1fj3DuABYHl2UNA3l0HQTbHZ6+tyr+93eGM5m2PjGDXTamqDAr/bRMeZCOGYAyG5Dv8uBlYCOaA7BsLuF93emDi2xd5Y53DspIE4QS1Rqzzs6KMgAPMhCA/h35eAeqAT6K8goR8N/d5YOeaXPBrMJ020O1CrLBs+l9vdddZZ1nQw+fnAEqABGEiAoJtiwKMNaXS+SzPQLi3HolrsBL+mZr9qyzoKNu+5YOY7wcw1EnozZeDR7E7SkLQkTcVZalHe2u+RcZxpYNizwLi3498VZfLOVxo6PFqSpmeRxqS1OE4tEg1MSc/9bOBmMOnvgNqE2PLl8B2Qtr8jrT2ay2egVp6Wtaw0tqlXeZ7tlyvMax+HU4WXPdp/jHMhjlQrxWq/P3A0cCsYr1F2fWSch42cE85NtW3vK05VC3a1d5wDsNqfnB0U/LUSushiLZTATe5cYc7EuWrFCj5Dcc/IDsbTr9OKH5sdwTovPPkMzqE4Wc3Uo78XmOdCMNGDgANsl2DFDtu9uXuQc8k5FWerjSf4jNI7DUyz1LPx5c2vjNMDzuVSzq2iDdV2adWDWXezwSRPAlslNBULzu2TnOtqZSmqpQez72Z6Z/htEpDEoM2LJZiZ1o4gsUd6k4H53lmytvrJNA1WkgfIC5KIpAi+47wmM5ib/jAYoFme/cSfGDSTF6ota27atl8tCansLf+BmPB7gI1AnwRA8EBeqGMJNPKIJKWyVvw90o4zBZO7wMtB14ovjGUWOOCVK7AjOBA7gldJgmLcJjrOBEzmmcBjmNgeMbjgEz3gmSXA6eQhSVIMW9ayGL77eS8YREwtFALH5SHwkiQqXsJ/OCZvEdAiJhaKBHnoXpgEMyRZEW8sFFFt26d4FWm15ReCQi/vSuDpkYqRRNXZZ1np7OCWf6McfUJI6IIS+CowVRIXnVX/VZgQ1t9bLAYVSoTfYsE5VlGE5bf1J8A2OwfC/wet+kKJA4h4+cmHyIOSxDI0CP5ECP4XMAk1CuUVylh3QKcEZbD3XwfcDeK3ixGFMqMVC9E3WC5Okhm+vb/bJMc5BML/iLb8QpQiCMmT5E1ddRae8O+etu1jQOjfS/iFiF5m8jR2AsfDJHiNJDZYZ99rQNx3AU96Z7JiOCGquQTPA+dlHEfViQMS/j1A0HcDf1VtPiEuCUXA5eDdvSXBxXr7bXsuiGnJ0y/EDE1QABdLggtf+fcGLlGNPiHG2AazdQHwWkm02THfJAj/la4WFRMJcb/c1LK+Tp6WZPsUfuAWEG6zmEeoEJCXb8w6jqoN+dj2XynhFyrSJ8CqVHIMjqkALtG2X6hwx+AlkvQRjvo8b78cfkLFX07i8jp4XpLvBfl45/yWmENICCyX55MeMcjwXkb4eUE+OucXkhQs9Cx4/yTKQGITe7zY/icV4SckMkbAth+nDCQygcjL6vu9YvuFJNcapAwA1Uk763+dUnoF4ZUswl9SJpIS2z/RK+Yh4ReEfyuBuykble7xn+CV8VIlH0HYGe2ubFRqjUFW72UBT6+GnyZcEHZFDWWEslJ5dv9g6e4/6LhPEMYoLQYZoaxUmvCngR/L7hcEX9WG74IpMLFStv57eDf2aHIFwR96IDP/VRHXkFUP3tW3UZMqCEbYSNmJu9eft/Qu19ZfEAoyBZZThuIq/AdkB6/o1i29glCoKUAZitvNQxMdZ0Jm0O5v0SQKQlFoydj25ybW1OwTD4+/4+yBDp+ZHSyNrAkUhOKxBjJ1atq2ox8fkHacKejsY5o0QQgOkKkl1ZYV/ZqCGdY9k90vCIH7AyBbV0R79c/lDkRH6zVZghAKHMpYNIXftl+NDt6jIz9BCDVUeCFlLXoBP5bFop51miRBCBV1lLWo2f10/D2MzvVpggQhVPRR1ihzUbH790Rn5qNjzZocQSgJmilzlL0orP4z0aGVsv0FoaRhwispe+VO9NkPnbhZOf6CUBaH4M2UwXKu/rPRkTZNhiCUBW2UwXLl+e+JDizTJAhCWbGsqhy+AGw95mR1l58glBu8a3BOqVf/vfDipSK+IEQCSymTpbT9P5jVNd6CEBU0QiYvKFWhj/3xwgfl+ReEyGB7xrLuo2yGv/pblnL9BSGCiUKUzVKV+dJtvgHg7blc/sR16/Knrl+f/2BdXf7S+vqdcD5+9y78/W34XNzG9uba2vzJ6Ps5L7+8y7jej99x3MTbYzi2qO4CsmGXD4OGORkvWSdim+MNjpM/DYK+oKEh/52WlvyK7u78mm3b8hZQ09ubf3n79nz9MGwAbPydn3u2pye/tLMz/9VNm/IXQTEcEyHBOaymxhX0Lzc353/a3p7/E8b24tatbt/XYWzDx7Uev7O8sXNspAVpQtqQRqSVeKYgrKOMhlXqi7b/bQr5HR+TgYPBxDOwCl4AYb27rc1l/J6Bgfw2YDswkDdv/QC/uxXo7O/P/wVK4RubN+fP2rAhPxPveiMEMeyx8R18F9/Jd6/o6sq3oy8cWy/QX8C4BrxxkTZ8Dml1V2tr/n1QKqQhaTlZfOUrRDhj2zdV2/a+YXj+j8YL1orIY+NwCMh7IRxfh3A8BwElQ5ei/Qsr7iIIDVfid6xdmz8owFWUz+Iz+Wy+g+8qRSPtSEPSkjQ9vAQKrgKwlrIahgK4VcQdHdMhJGRSbmXXYotbjkZVs7mvL//kli2uqcBV+uAiFAG/y2fwWXwmnz2QL08jTb8N2p4BE2G6TIQxQVkN2vmX5lmjiLsrpgB0dt2GVYp2b+9AuURk50Yz4QX0516YH1y5pxkIDT/L7/C7fMbWiIyJJsLz6A9p/U7sSGQWjB4XQJkN0vl3lWz/kTGvvt4Vkq7+/nwUGxVSLVbP+9vbXQfb1DHGwr/xM/wsvxMVZTa8kdZUBB8G7cWDo6QLO87lQTn/9vTy/UXYIav+0bW1+a9ha0xnXDTFZOfWB7Sir/TSz8LqOXQbzZ/5O/6Nn+mLwXhIc9Kec8C5mCK+HI6VlN0gbP9TVOtvyCoJYXk37OJfwybeOhAH0d+18cjx+ubm/AkQeoI/83dxbJwDzgXnZKp8AzvVDswUe7koryf2Cn50i6CDZ/kfgG38VFdXLFbJ8TzsK7u7XfTEVJEN3d1wTuiEnSo+3YEuyO4NRV0xDtt/Wnbwdl8RFGAAzt9he8Zd+CuxcU54ZMiISvHqK2XDnqAMF7P9PwsPqRUx7fzZWPlrynS8p+a/cY44V+JZF7WU4cKq/dbW7ocH3J507/9k75jvHwEEv3Cj3Y3t9qa+PtfLztDe/4X9/bGNG/Png2mH43L8/kv4+4MdHW7UXwPsdEbdbYvglp1mRBv6xj6yr+wz+375KGPjmDl20oC0IE26C4yQHN44V5wzHRO6kYG3vL6mxrxWQLVtz8CXVyRdix6Xy+V/u2VLvr/I7WkOTL4MdupNmzblT1m/3uhcfgeOqq3NX1Zfn/9uS0v+aTyLzyynI7LbO2L8A/ryzc2b8x/G9pt9NB0XaUGakDakEXMFijGzOFecs+OUaMSgoBWUZdNa/7vji+fiAR1JJh6Z+futrS6jF+NxX9zenr8QwnFYgKGsh+JZfOYdUAYUmsYSRenxHXwX33krhJ4Zi4cGOC7S6GIouR+DZg1FnExwzjh3hSikCkMHZZky7T/yz3GqgDuTTDiuSlc3NrrhrwUxILbDv8IqxBX7TSHGsLOfjIq7BO/5Kbbd9SEe53GbznfwXXzntBCP3ZhO/HGYCaRhd4FBVpy7+Q0Nyi6kLEOmTbz/0zMJd/4x+eWfBdr9W8CwX8F29q3YgpbyWIpZemdv2JC/p62tYMU1miDxmczjn1nCFZW0Iw2ZDFRopCXDs2cl3BSgLFOmTbz/lyXZ+ccV4/+wfRwoYHu8ESswhbBcqw4z5uhcay1SAXAsdOo90tmZn71unRstOLmMuzGaO6RtIXPCuUx4pCBl+Tz/JsDgRZ+JJRiZzdS5xrj5f27b5n53Shl9FsyY6ywyL6ED33+mu9v14Ecp/Jq0fQk0Nh0d51JHg/b9Jhd+NCSVULTXn4DdOWDodV7V0+M6xKaVaeU/Av2m8BdzRDjgnVaw0AdLdU2OoF+GDkJu6/sNx8U5fVOy6wms83f85zhHJXn7/wmseo2G22eW7qLDqlzb/iOx8n8Lwr+liJWfFXno2WeG3WERFhQWJ/lkQ4NLc5PGE4WPRmhHUw4zIG3b0/ycAMxPKpFY7opebhPxp3Pqhk2b8oeUSWi4KtLmL8bpxyAe7h54bh4HW5m0ZtyByfFsHz7Lo8U3JngXkLHteeNt/3fLWNZDSY34+whWP9NqPkugMMq17WfFnmubmvJNBQo/9wvrsTJ+GivqITE7KqNT8nFs600a55ZznOAIwfvGVAATa2om4kMvJZE4tKF/0NZmxFAUPIacluuk4gpsaTcWeO6/1csGPPfll2ObQTd3/XrjnQ/n+Ijk7gLWwAyYMNb2fy4+VJ9E4vCoi9lkJlvKW7D1L5fdT8Fl2e1CGk8sGKvP+wjiHqzF8mB9BqYA53h2mZR2BLCh2rZPGOv8/zp8qDOJFX6YnGIScca04P8sEyMdj/f+xUBZDW+0hSvlQo5TQQvHQBFyjjnXCY0LaAOuHOv4b3E2gXf+0TH03dZWIyGi1/3QMmwlGejD1buvwOO+h/DdSrqNhycWCzEXJo1znVBnIGX7ntFq/x2R1Np/vHrLxPm3Bqv/+zZsKHk/qXBux5a3kEAffoeJQzMrMDmG8RcmtRo4129NbnjwU2nbnj5S9N/ZQC6pkX8mnnNWzS31WTm93lc2NBSU7NOF3QLDYd9coZlxVGq/wM7GZE90dhkUeERgwdSfO1IC0NVJrf1386ZNvhmH8fFfaGoq+REli14+V4DdT4ffj6Cwjlu7tqLnkLEQHQY7oy9jzhOqAOjjW7Bz/r9ts/rPHUkNkPiNwXkyPe/nlDiu/NAddn8BNv9jnZ2JuIH3HMNTkUdBlwRHBd6atax9htr/1fjlA0kliEkgzdPd3SWP+ruqsbGgdFjuGE6s8JV/aHQg58YkhiPJiUGQ+fTQ478jk1r9d8769b4z//i5RS0tJe3ff0CA1xlGJ3I0LNV1JsyGJEW9/bC11fdtRgx/PjG58QDLKfND7f9Z+OWLSSQGz4T9ZtDRxuQd9iXLTKytdS+9MF37mfjCKMGk1cink9SvH4Bz/rHkJge9SJkfegJwOrA5icT4n+ZmNxPOT2vGtrFUwT8U3muamtwyXCaNVYOZzpvEq7TPwI7HL70455z7hCqAJmDOjgAgFgC9KKn2EAtH+hUxHsEdXKLQ35OgaH7f1WV0tEWmXtLZmT8moWfcPJr1e0zKOefcJ5Tv+yDzF1L2U5Nse2/8z7VJVQD0BvsVMob/lurMn8dapsUwyfwnJdeudeH3jkNS9mcdHUlODb6Wsp/KWlYVfrEwqYQwOVt/rARHR5O9raxjmOhD5xcr4EbJ6TfZU2ZMNS6VP+K3Bke6f8XcJ1hZLqTs8wRgEvBoUgmx2kAB3FmCEwAKy/cN8xK4mv0cq1mUcvqZbMNswxs3bcrf3dbmVkyaXoL+8Ypzv211ghUAZZ6yTwXwBuCFJBKBATYvGJT+vrEE0WNnYfU3zXHnGE6DsEVl9WdxUnrk/zpEuXJMZ5Ug/PZGg6jOv4FuCb4zYDXkfipPAA7LJvQGIJ6xWwZb7VIoAJbhNvX6MzT5oAgwMrf5vKKbNyG1jKDEHimBCWWiAP6FuX9bcpOCWoBDGQV4UlK3QXSY2RFSAO+B8JjW86fNG4VQXxYmZW1ECtVowTjcBRwfcmSiiQLg3CfZaUrZ5yWg86QAyq8AuHr+BCunifjT4/3RMte447EoFdez2O6PF1HJY0qW5JoqBRAJUPZ33AIkBVBmBcCtc61ByO92r8rt9DJt/fle0o81BnoMipNwjO8N0RcgBWCkAC6mArg+qQRgiuxLEVAArG230FCQ6rD6n1ammn4zsN3/bGOju+pvN6xMxDGyIk9YAVWmPoAEFwbhScDnqQASGwNAx9nfI3AKwOOyZw1z/csVxcbVm8U3moq4h4CnA3NDUl7fNigPlvBTACqAhYlWAKZxALwhNwzb/7+bmoxW/9b+fvcEo5R0Ym7Bl5qb3R1TsfcOszzZNdhBhOELeBjKSXEAZgpgkRSAv/arEI6xjsUW9NcG0WtUE9/BKlcq259bdZYg52WhW4u4d3B4exi0DGP7bVLcRQoACiDrOA8lmQjLDBJuVkEIgg6VpXCZBP40eNePh+355+rMzMfvwdToKPK24ZEaLzR5P8Ye9Dj8mnScc859knmfhUEYCLQqyUT4Ibb1JtmAQVYDog+Cqbsm7T70N+zinm/B81n3YJVBhZ1CGmsxBhnAdLhhNuD3kpsNuAOrEq8AvgIm9OvJbgo4kIUhs/8wcEI2gbkv37gxtNWfDjGG6/J4kXn1A/lw2/PYggepzHhNW5PqAUgBhFURiFF6F9XVBRr512tgV7PmXVjn1lyJuSI7vb2+6VFs49jfE2BMwGX19W7VZr8VgT6EzydeAWQs66UkE8GkJuAWMNd1AZYE/4FB1h+vwuaV2FNCcPLRp/BXH5F8YbS7AtyGfxkrut/iqRxr3O9GDADPpRJOAFcA/N60syP6Lqj35gwi/xi1FuRlFgw+ehd2EwxAau3rC0ygmZxkokj+CRMoiBONKV4otV9zjnOedN4HulIigp3/p0E0IK/UDqLeHgNq/K5W/NTjW7YEdp8d06A/50XyBSX63FI/D2FmQhCdh37PDbirOiWAlZj+lD8aOC055+J9Oy8FADxgUESC4aNB2K3crm4zKGEdZBTiVQ0NxjUHxltNefUYKxlxZ0HnWrfPsZEGXwzAGcc5+ZeBIn8goJ2cFEAFgHHtJufw8wMoDf6YQblvbtGDDJ19zLDmwHie/Evr690S5kNDm1t8KhjSgLQodkxXYw6bDZQa51y8b3dTAaxOOiEYVutXGPk5Ou+KOb9m9N+LBsd/3FoHGTb7tc2b88WE9vC7DRA2XpHOWgRTRggiet5gfGuwcp9QxPEq54LxHAMG/f+PhNyY5McJuCrphGDgyxoDhmW57hOKOI67GCtmncEtv98OuBYhy4abJEENbTxmY+jyeOW9TJJyWNdgXhFHcoxYfMbA/udcv6VCb0pWHECBEWQ/MfADMNrsw0XEA9Ce7zQIr70gwNiDHQE/n4IZ02KwZeYnqTRYrtyPE/QCgyvX29CPYm5c5lyYXJvOuU7ixSlSAGMciV0LBjQRhhsLDGPld35kUPmHiiKMunVcAX/ssx+0rVnZlycXU32OmX02OV4tNL2Zodk0aUxcmrT/k5wGvLMCSHgy0A7wjH29wSqyrMBafEfjOya165mzfmgIq9UULxFprCPQfs//wGhJhuyahCCzz38zMDOYaTmjgG05/SlPwSTz2zjHpahOHJtkoKSnAw9dsR418I5zdSuEkU4zLP5B51ZYFX+5Cn51BHOEqykzAG/DynokBHlqEY45v+0voMkcw5MOKqTzocRMzClWJk5wJWAVBBmrxh23kiYlrlggxDSKjSmwJufVnwmpcMbQ8l5LIRR9XoosjxyZU8+rxYsJO2afP2NwvLq2t9fYr0La32OgZDi3NzQ3J+7WZCkAA+/8eoPwXHryZxpuWz+B7bTf82p+6r0l2K7Si85a/twBXQ8BCcpDzr77tc0bQcuPG17XTdqbnKZwbi9WAtAuCuB6EePf9uRyA3uS7UrDoCBe+e03Vp5BR3NLlLDCm3UpUEGujux7g08B5UWonzMMziHtTRrn9lht/3cpCnqZiOFtW7Gl/DrMgC0GNuWfurt92+jTvef7dgDCLj4xxgEr7PvfDPwdJvn5pPmfDM7+Oaek/VR5/19BNcuCVyf4YpCR8D7Y6GsNzABmv33K5628dKiZOMaehC0e5xWLfX/C4MRjUUuLrxMP0po0bzdQ1DWY09Pl/R+uAOYl+mqw0UCnmF/W4maex1B+Ktu8Ccx9t4EC4I2/cY5Yo4NxsUGA1b0+y53xM08Z1HLkXP4MtBRvDzMBeDVYNsGXg46GS+rrjariuFd0+XBgmQoEa9bFOWKNff+eQdGTX/qsFExav2zg/ONcXiLn33B4l4Pa9rRsQq8HHw3Muze5NbgPDMbw0vECWY4Dc5uUrU6aAqCT7p3j+DxIY/cORQMFzbl8o0J/h2PwenD8ZxLwqAiyM+iQMmksRsljrLHOzsncJqcMUgC7Ri+Sxqa3Eqn454gnAI9S9lNZy6rKKhZgxMhAk4q9XI9+M47TzlQBMEFmSoxpyByLrxgo0vEUwLHeDsqkciHnUJF/I2IhZT81ybb3hia4VgTZlXlZANT08ksK7WhHTdoBFK4ASNPrDXdlrDrMJK9pOvobaQdwLWU/VZXL7Y7/uUhEGblisEm9QLZafH7WKEwsBVC4AngHfm8S9Zf30pdV+XdE9EHmL6Tsp9jwi9OBzSLMrhltt7W0GNfJ/84oBTyoGJ6QE3DURtqMpDwZQHWXwXN2eP5v8xlXkEA0AXNSO1rGsmbhFy+KMLuChS6fN6yew+IUIxXx0DHg2G3xKCcprDlo6vhjduFpWv1Hw4uU+X8rANs+Er9cLsKMbHvetGmT0QWZA1758OEOQdNAoJ92dBgnG0UJLD32sEGKNWlz5DCFx1qBqyDMJnswzhULtijrb1Qsp8z/WwE4TjV++YAIM3rWGQXahAlZFpuXbhw2hKGPwM93GdrEx8XYg32cYXLVHaDXIUMcdlSYrBTUbWCCDXg1G4/Q1n/MQiCQ+fQrCiBt2/vhl3eIMKOD985tMbwmm06rTzc0vFIzgN7oWwySgV6A6RHWXYClAPv+goH5NPS8njQj7Uwdf5yjDwVcQ7ECcWvWsvZJDW34xdX4Q7eIM/qx4OMGDryhJb1mDxFiHhP6tWY3gvnnxNiOPR193+TTdt/mHdntSPZ594YNRiXFdjTWNNCx35joBBakhjf88mwgJwKNDlbJaTRckbhnYA3Agz2m/JTBrTw8x/4Idh6TY0iryV6BFb97JiqKT3r5FEz2WWZwccrQoiJz5fgbDxbs/7m7KADYBEfgjytFoLHz+b+EbappcBDj1r8L+5Y1+Fglx+RSEDog47iiTfPqDZqYO+/1rhbjyUGfIY05J5yb6Vr9x8NTMPmn76IAqnK5PfHHxUC/iDR2iPBDHR3GSqDTq3jDizCfNihkwdTkQ2LI1Ey+WWZgMv2uq8stTUY/gKmvhXPBOVHI77igbN+TGq3hj9d5NoKINQZYTvslwwhBtnW9vW6hzF8ZCAbrBx4TQ8Zmn03u6qPtznJp9YYmFhvngnMi3hwXbcCVoysAx5mLD9SLUGPjYG972264UvV7ySkMUTXZQcyLYS47c/ZNVnDShLQxtfs5B5yLg7X194MN1bZ9wqgKYGJNzUR86CURyl+1G5PKQUOVAD3eJt9jGbG40edBg4jHQmiy43tLC7xQJKFYA/t/wqgKoCqX2y1rWb8QofxvczcUsGU1bax+E6fAFtJlYwnoQtofI7vfBPelxmswA+aLUP7Bm2k2Gcapm7Zuz8Mdh9oA7CP72m3oJDVtzA04T3a/aQrwvHEVQLXjHIUPD4hg/v0BLHoRphIY8MqPvzUGqx37+CfDsGnTRlp/ETQ/SHa/CQaw/Z82rgLwjgMbRDCzXIEfMGa9vz/UFe+zIV8TVnTiFMA+NoWoDEljxgkcJbvfFOtSfhs+/LAIZhb1Nsu79TcsFdDvnZWfGOHcAPaNfQyLBoyM5OWeut2nsAQgEwVwgcwAcyVwMgTgzz09oQpAVI+8dhyN9oZk+/d7ZhATjCaL34y3/8B5vhVAxrYPAmpFOHO8HavT6gKSWEwyDD9YVxcphyD7wj7Vhej5Z4GPt2vlL9T552RGCv8d4ySgCrhTxCsMvAJ8TQGRgn4bC2REyRRgX1YZ3AFo2kjLM3StVzEK4FsZx3mtbwWQzuV2xxfPzerGoILApB9mwr0Q4k6A14ZFwRHGPrAvYTXSkLR8gzz+hYIyfG56RwFQAzNgBr64QgQsDAd5SiCsnQDP2RkhWE4lwHezD2Gd+ZN2pKGO+4rCCspyyrSla2tZJeh2OQOL2wnQNubVVGGISBcE7x4I4NGwjSeX2OHJd/LdXSEIPx1+9KPQlNLKX5zzD8J/y+travZKFdLw5bOycgYG4hgM63SAXndm0r3Hy6UvRZ4/8/Z55NkbkvD/WQ6/oFBLGU4V2jKWxYtDl4uQxYNHhBSasIKF1mDFvLqhIf+mEE0CXlV+dWOj+66wgnxIo5NjXAcxYkd/T1CGC1YAVbncHtAgN6tWYHDBQvdi29wWkhJgqbEftbe7ZcSCvE+Az+IzWaa8JaQoP9KEtJlVYnOmgtEF2b2BMpwqpuEhp+BhdSJoQLYzVlHWrA8rd4C59et7e12zgMVHiski5Hf5DD6Lz9wekrOPtCBNSBsJf2Coo+ymim0Zx2FuwDMiaLBRc8wiZDprWFGDfV4ZMgounXXcuvPePZbqYokx9mG6B/7M3/Fv/Aw/y+/wu3xGWJH9/V5KL2mhgh6BYyVlNxVEgx1xlU4DwsmcexI2b3uISUTDG0tu8Wz9j93d7lVcBH/m7+pLkMM/tJIPx/5WOfvCsf8d57JUUC1rWWk8tFGEDaeyEGPoWddue8g59FFoHCPHyjGrkk9oaEznclWpIFuGt4mIsKGZBCxqWUi14Ti1Lqz6HOO52vKHHfp7ayrohocezZxiETg8sKw1K+PS9q60xmAo1gpQ6e7w8/4pq8ErAMfZHw+/Tb6A8ANtTly71i16wWO9vhgLfZ93NMmxHI8x6cqukkT+3VRt2/umwmh4+MnaBZQOs9evz9/f3p5fix1Bf8zsfPaZfZ+tq7pKvfqfnAqrZS3rALxkEbBdxC4daDMvge3shHgWH5Tgs48/geB/QAU7S43trmxCRlNhNmiYM/EiRwQvbQDRkTU1+Qvq6vK3t7Tkn+3piZRpwL6wT+wb+8i+KqCn5GDRjzNTYTdoGPoCHszqDsGygME6vEOPDjVeitHSVz5VwHezD+wL+/TGGN1dUGmrP4T/fspmqhQNL/sgXtokwpc31ZgrLavxXNfUlH+6q8uN2uMNO7xZN0hDgc/iM/lsvoPv4jv5bvZBKbvlP/eHTF6QKlWryuX2wkuXivDRAmP3L62vz3+/tTX/ewjpv7Ztc0NtG7FSM/Ju6ziKgX/jZ/hZfoff5TP4LD6Tzz5Cq3wUsZQymSplq7btOXjxNhE/umD5bNrkn9i40b2tZxFs9B+3t+d/Ogr4N36Gn+V3+F2V4I48tlEWU6Vu3gUiyzQBglBWLKMspsrRYHfMzg7eOa6JEITSo40ymCpXw9ZjP69giE4EBKG06KfsUQZT5WzoxEyvXoBChAWhdOW+nqHspcrd0rA/0BFeKd6siRGEkqCZMpcul+0/wi5gSmbwQtE+TY4ghIo+yhplLhWlBlvkdNUOFITwa/1R1lJRa2nbfnVmMFFIvgBBCC/ddxFlLRXFBpvkQCUKCUJ4CT+UsVSUGzTUFehojyZLEAJFD2UrFfWGTh4ILNGECUKgdf6WULYirwBgn7wqM+gQrNHECUIgWAOZOpWylYpDm+g4EzKWdQ063qrJE4Si0Arh//zEmpp9UnFqXvmwe4FeTaIgFIReV4bCLvMVYmzADAxglSZSEArCKspQKs4N25ezs7pdWBBM0U3ZScW98XpiDOZbmlBBMPL631z01d6R8Qc4zjQM6nFFCQqCr0y/xzOOMzVVSS1rWcdhYC9ICQjCmML/N8jKsalKa+nBEmIfyupmIUEYTfhrsfU/H1v/V6UqsUGzTcAgP6/4AEHYBS3A1ZSRVCU3Nz7AcRapjJgg7FTe65uxPe8vwClYlbGsR+QPEAR7gLIABbB/Kkkt7TiHQOOt0E5ASPLKTxmgLKSS1qpyud2g9Y4HEZ6XEhASKfzgfcoAZSGVxAbt9xoQ4TwVERGSWNzD5X3IQCrJLeM4+4IQl2d12aiQHJDXLyfvp9TcncDewMVZ3TUoVD62urwOnpfk75o4tAAE6hCTCBWKDgj+ZZL00RSAZb0W+DoItVnMIlQYNpO3yeOS9LGVQBrEulE+AaHChP8W8rYk3F+gEMuLL5ASECph2++t/BL+AhyDl7hOEzGREF+H32Xa9hfRqm17LghpK2xYiN1Rn2VdLAkufifAikLvBp4DtouxhBhE+DlubIuO+oKLGMzY9mwQdVlWVYaFiIf3MsJPQT7B5w7sDnPgGCiDP8gcECJZ0MOyVrj5LUkP7w0zgQjErVYqsRC5fH7wJLP6EpvYU+JYgdcB94Dw7WI+ocxlvFpYzCNx+fwROB2YCKJ/gXXUlE4slKuGn1fG6wBJZHmcgxOgCM6BInhaJoFQ6uq9LOBZ8TX8YuAX4G3EM4DFChoSSoTHWbq7Yqv3xtIvYNtpTMrnMDkbtRsQQgKv67q54i7tqKDdwB4wCU7BRC0HesSwQkBg7Mkq3tVXMdd1Vbhv4HBM2J1erXUxsFAMeIfFvdVxv6U3gUrggMzgJSRrxMRCgVjj8pC8/PFsE2tq9sEEngoskUkgGKCHPEPeIQ9JkmLc0rbNU4IDgSu8JA05CIWxjvcc8gp5hrwjCaokZZDLURHwWrI6oE8ML3ggL9SRN8gjkpTK3hG8utq2T8dkP4xJb9aOIPErfjN5gTxB3pCEJCduYAowHwzwjEKJE5u6+wx5gLwgiUimSbAnJn8mgzvADG0SisSgzQ3owdyTByQJCW/Y/u03pOCILiepXHBul3GuOefifLWdWhVWAzDGHDDJUqBRJcgqAtu9uVzKua3Siq/mQxHshVXiAuB+7+hQiiCegs8jvfs5l5xTcbaaUcta1v5gnjOzg0eH63RiEBvPPudqkTt3mENxslqxioBhxScDN3nMJUGLJtZxjjhXCt9VC8NZuC+Y62jgVs+u1I4gGit+I+eEc8M5EqeqlWJXkM46zuVgvpVeZGGXFELJBL7Lo/lKzMFl6VyuShypVpaWcRzGEpwC3ACGfMKrEydFEF4NvidIa5fmoL04UC0qJwd7ZCxrGhjzLDDp7cAKXgwpwS3+ck3SEnS9hbQljVWUQy3SLV1by8CiGWDcc7FFvTOjXYHxap8ZPML7FmlIWr6+pkbHeGoxUwS53O5QAFVg4IN4XVR2MK5Ax4ljH9/d716tZdvTscV/LWkoTlKrLMVg2zQV5oHR7/MqFm3wchGSkJTU7411gzf2+0gL0kScoZZEZcC7DU6AIFwJ8LajpwAL6Kwgoe/0xvSUN8YrOWaOXRygprazQpiOFXEuhGQBcAfwgFfl+EX3zvloFzLp8/r4otfnB7wxLOCYODbNsJqaf2WwH+zgagjPkRnLmgVBmoOfLwSuxc8L8e+j+Hd1maof852rvT6wL9eyb24f0Ve3z+h7Wll3amrBNV6TPsm2985aFp2Lk4CpELpDIWwnYVs9D7iYlWwzg0LpwnOsrRqC1SMI9Ophn7l/6DP4TD6b7+C73Hfi3ewD+8I+VclhF7v2/9isMyPxmiuZAAAAJXRFWHRkYXRlOmNyZWF0ZQAyMDIxLTA2LTA2VDA4OjE1OjA4KzAwOjAwm7LpSwAAACV0RVh0ZGF0ZTptb2RpZnkAMjAyMS0wNi0wNlQwODoxNTowOCswMDowMOrvUfcAAAAASUVORK5CYII=;" vertex="1" parent="1">
          <mxGeometry x="-110" y="155.13" width="80" height="80" as="geometry" />
        </mxCell>
        <mxCell id="0y5u9PAxMaBoNawSlbt3-14" value="" style="endArrow=none;html=1;rounded=0;strokeColor=default;align=center;verticalAlign=middle;fontFamily=Helvetica;fontSize=11;fontColor=default;labelBackgroundColor=default;flowAnimation=0;" edge="1" parent="1">
          <mxGeometry width="50" height="50" relative="1" as="geometry">
            <mxPoint x="844.47" y="100" as="sourcePoint" />
            <mxPoint x="844" y="-140" as="targetPoint" />
          </mxGeometry>
        </mxCell>
        <mxCell id="0y5u9PAxMaBoNawSlbt3-17" value="" style="endArrow=classic;html=1;rounded=0;strokeColor=default;align=center;verticalAlign=middle;fontFamily=Helvetica;fontSize=11;fontColor=default;labelBackgroundColor=default;flowAnimation=0;entryX=0.5;entryY=0;entryDx=0;entryDy=0;entryPerimeter=0;" edge="1" parent="1" target="KpQ0RRauX91zfOvzku4H-26">
          <mxGeometry width="50" height="50" relative="1" as="geometry">
            <mxPoint x="850" y="100" as="sourcePoint" />
            <mxPoint x="810" y="140" as="targetPoint" />
            <Array as="points">
              <mxPoint x="757" y="100" />
            </Array>
          </mxGeometry>
        </mxCell>
        <mxCell id="0y5u9PAxMaBoNawSlbt3-20" value="" style="endArrow=classic;html=1;rounded=0;strokeColor=default;align=center;verticalAlign=middle;fontFamily=Helvetica;fontSize=11;fontColor=default;labelBackgroundColor=default;flowAnimation=0;entryX=0.967;entryY=0.007;entryDx=0;entryDy=0;entryPerimeter=0;" edge="1" parent="1" target="KpQ0RRauX91zfOvzku4H-17">
          <mxGeometry width="50" height="50" relative="1" as="geometry">
            <mxPoint x="844" y="-140" as="sourcePoint" />
            <mxPoint x="443" y="-70" as="targetPoint" />
            <Array as="points">
              <mxPoint x="590" y="-140" />
              <mxPoint x="590" y="-100" />
            </Array>
          </mxGeometry>
        </mxCell>
      </root>
    </mxGraphModel>
  </diagram>
</mxfile>
